<svg xmlns="http://www.w3.org/2000/svg" width="1440" height="569">
  <rect fill="#0f0e1d" width="1440" height="569"/>
  <circle cx="109" cy="21" r="1" fill="#fff" opacity="0.66"/>
  <circle cx="149" cy="29" r="1" fill="#fff"/>
  <circle cx="203" cy="15" r="1" fill="#fff"/>
  <circle cx="290" cy="35" r="1" fill="#fff"/>
  <circle cx="316" cy="54" r="1" fill="#fff" opacity="0.5"/>
  <circle cx="353" cy="14" r="1" fill="#fff" opacity="0.5"/>
  <circle cx="395" cy="40" r="1" fill="#fff" opacity="0.74"/>
  <circle cx="420" cy="30" r="1" fill="#fff"/>
  <circle cx="500" cy="47" r="1" fill="#fff" opacity="0.5"/>
  <circle cx="530" cy="22" r="1" fill="#fff" opacity="0.5"/>
  <circle cx="567" cy="51" r="1" fill="#fff" opacity="0.63"/>
  <circle cx="600" cy="18" r="1" fill="#fff" opacity="0.5"/>
  <circle cx="630" cy="45" r="1" fill="#fff" opacity="0.66"/>
  <circle cx="710" cy="33" r="1" fill="#fff" opacity="0.66"/>
  <circle cx="740" cy="44" r="1" fill="#fff" opacity="0.5"/>
  <circle cx="800" cy="28" r="1" fill="#fff" opacity="0.5"/>
  <circle cx="830" cy="60" r="1" fill="#fff"/>
  <circle cx="870" cy="38" r="1" fill="#fff" opacity="0.5"/>
  <circle cx="900" cy="18" r="1" fill="#fff" opacity="0.66"/>
  <circle cx="950" cy="50" r="1" fill="#fff" opacity="0.5"/>
  <circle cx="990" cy="25" r="1" fill="#fff" opacity="0.5"/>
  <circle cx="1030" cy="55" r="1" fill="#fff" opacity="0.5"/>
  <circle cx="1100" cy="20" r="1" fill="#fff"/>
  <circle cx="1150" cy="48" r="1" fill="#fff" opacity="0.5"/>
  <circle cx="1200" cy="30" r="1" fill="#fff" opacity="0.66"/>
  <circle cx="1250" cy="42" r="1" fill="#fff"/>
  <circle cx="1300" cy="55" r="1" fill="#fff" opacity="0.5"/>
  <circle cx="1340" cy="15" r="1" fill="#fff" opacity="0.5"/>
</svg>